<?xml version="1.0" encoding="utf-8"?>
<!-- Generator: Adobe Illustrator 24.1.1, SVG Export Plug-In . SVG Version: 6.00 Build 0)  -->
<svg version="1.1" id="Layer_1" xmlns="http://www.w3.org/2000/svg" xmlns:xlink="http://www.w3.org/1999/xlink" x="0px" y="0px"
	 viewBox="0 0 512 512" style="enable-background:new 0 0 512 512;" xml:space="preserve">
<g>
	<path d="M384,0v64h-32c-22.4,0-35.8,6.4-49.9,24.3l-90.3,113.9L113.9,88.3C99.8,71.7,85.8,64,64,64H0v64h64l1.9,1.9l104.3,122.3
		L64,384H0v64h64c22.4,0,35.8-6.4,49.9-24.3l97.9-122.3l106.3,122.3c14.1,16.6,28.2,24.3,49.9,24.3h16v64l128-96l-128-96v64h-14.1
		l-3.8-1.9l-112-131.8L352,128h32v64l128-96L384,0z"/>
</g>
</svg>
